<?xml version="1.0" encoding="UTF-8"?>
<svg width="204px" height="203px" viewBox="0 0 204 203" version="1.1" xmlns="http://www.w3.org/2000/svg" xmlns:xlink="http://www.w3.org/1999/xlink">
    <!-- Generator: Sketch 63.1 (92452) - https://sketch.com -->
    <title>Group 13</title>
    <desc>Created with Sketch.</desc>
    <g id="Page-1" stroke="none" stroke-width="1" fill="none" fill-rule="evenodd">
        <g id="Artboard-Copy-80" transform="translate(-1207.000000, -869.000000)">
            <g id="Group-13" transform="translate(1207.000000, 869.000000)">
                <g id="Group-12">
                    <circle id="Oval-Copy-43" fill="#FDE3AF" cx="41.5" cy="153.5" r="5.5"></circle>
                    <ellipse id="Oval-Copy-44" fill="#FDE3AF" cx="174.5" cy="34" rx="7.5" ry="8"></ellipse>
                    <ellipse id="Oval-Copy-45" fill="#FDE3AF" cx="82" cy="164.5" rx="6" ry="5.5"></ellipse>
                    <ellipse id="Oval-Copy-46" fill="#FDE3AF" cx="66" cy="38.5" rx="8" ry="8.5"></ellipse>
                    <circle id="Oval-Copy-47" fill="#FDE3AF" cx="102.5" cy="165.5" r="5.5"></circle>
                    <ellipse id="Oval-Copy-48" stroke="#FDE3AF" stroke-width="2" cx="101.5" cy="101" rx="100.5" ry="100"></ellipse>
                    <line x1="0" y1="101.5" x2="202" y2="102" id="Path-42-Copy-2" stroke="#FDE3AF" stroke-width="2"></line>
                    <path d="M2,102 C53.5685743,99.8227792 86.9019076,79.8227792 102,42" id="Path-43-Copy-2" stroke="#FDE3AF" stroke-width="2"></path>
                    <path d="M102,101 C153.568574,98.8227792 186.901908,78.8227792 202,41" id="Path-43-Copy-4" stroke="#FDE3AF" stroke-width="2" transform="translate(152.000000, 71.000000) scale(-1, 1) translate(-152.000000, -71.000000) "></path>
                    <path d="M1,102 C15.9051549,144.666667 49.5718216,166 102,166" id="Path-44-Copy-2" stroke="#FDE3AF" stroke-width="2"></path>
                    <path d="M102,102 C116.905155,144.666667 150.571822,166 203,166" id="Path-44-Copy-3" stroke="#FDE3AF" stroke-width="2" transform="translate(152.500000, 134.000000) scale(-1, 1) translate(-152.500000, -134.000000) "></path>
                    <path d="M80,102 C82.5087793,116 89.8421126,123 102,123 C114.157887,123 121.491221,116.113546 124,102.340639" id="Path-45-Copy" stroke="#FDE3AF" stroke-width="2" fill="#FDE3AF"></path>
                    <polygon id="Path-47-Copy" stroke="#FDE3AF" stroke-width="2" points="123.506258 101 175 34 102.397177 101 66 41.1054342"></polygon>
                    <polyline id="Path-48-Copy" stroke="#FDE3AF" stroke-width="2" points="102.011696 101 16 50 124 101"></polyline>
                    <polyline id="Path-49-Copy" stroke="#FDE3AF" stroke-width="2" points="101.89319 202 10 61 202 101.232375"></polyline>
                    <circle id="Oval-Copy-53" stroke="#FDE3AF" stroke-width="6" fill="#000000" cx="101" cy="47" r="13"></circle>
                </g>
                <line x1="102.344369" y1="202.340714" x2="102" y2="1" id="Path-42-Copy-3" stroke="#FDE3AF" stroke-width="2"></line>
                <path d="M102,1.79410666 C92.2334988,10.2998025 83.1727949,19.2806387 74.8178884,28.7366151 C57.9827792,47.7903762 40.7394678,79.0226271 36,101" id="Path-46-Copy" stroke="#FDE3AF" stroke-width="2"></path>
            </g>
        </g>
    </g>
</svg>