<?xml version="1.0" encoding="utf-8"?>
<!-- Generator: Adobe Illustrator 24.1.3, SVG Export Plug-In . SVG Version: 6.00 Build 0)  -->
<svg version="1.1" id="Layer_1" xmlns="http://www.w3.org/2000/svg" xmlns:xlink="http://www.w3.org/1999/xlink" x="0px" y="0px"
	 viewBox="0 0 204 203" style="enable-background:new 0 0 204 203;" xml:space="preserve">
<style type="text/css">
	.st0{fill-rule:evenodd;clip-rule:evenodd;fill:#FDE3AF;}
	.st1{fill:none;stroke:#FDE3AF;stroke-width:2;}
	.st2{fill-rule:evenodd;clip-rule:evenodd;fill:#FDE3AF;stroke:#FDE3AF;stroke-width:2;}
	.st3{fill-rule:evenodd;clip-rule:evenodd;stroke:#FDE3AF;stroke-width:6;}
</style>
<desc>Created with Sketch.</desc>
<g id="Page-1">
	<g id="Artboard-Copy-80" transform="translate(-1207.000000, -869.000000)">
		<g id="Group-13" transform="translate(1207.000000, 869.000000)">
			<g id="Group-12">
				<ellipse id="Oval-Copy-44" class="st0" cx="174.5" cy="34" rx="7.5" ry="8"/>
				<ellipse id="Oval-Copy-46" class="st0" cx="66" cy="38.5" rx="8" ry="8.5"/>
				<ellipse id="Oval-Copy-48" class="st1" cx="101.5" cy="101" rx="100.5" ry="100"/>
				<line id="Path-42-Copy-2" class="st1" x1="0" y1="101.5" x2="202" y2="102"/>
				<path id="Path-43-Copy-2" class="st1" d="M2,102c51.6-2.2,84.9-22.2,100-60"/>
				<path id="Path-43-Copy-4" class="st1" d="M202,101c-51.6-2.2-84.9-22.2-100-60"/>
				<path id="Path-44-Copy-2" class="st1" d="M1,102c16,34.9,49.4,61.6,101,64"/>
				<path id="Path-44-Copy-2_1_" class="st1" d="M101.5,166.1c51.6-2.4,85-29.1,101-64"/>
				<path id="Path-45-Copy" class="st2" d="M80,102c2.5,14,9.8,21,22,21s19.5-6.9,22-20.7"/>
				<polygon id="Path-47-Copy" class="st1" points="123.5,101 175,34 102.4,101 66,41.1 				"/>
				<polyline id="Path-48-Copy" class="st1" points="102,101 16,50 124,101 				"/>
				<polyline id="Path-49-Copy" class="st1" points="101.9,202 10,61 202,101.2 				"/>
				<circle id="Oval-Copy-53" class="st3" cx="101" cy="47" r="13"/>
			</g>
			<line id="Path-42-Copy-3" class="st1" x1="102.3" y1="202.3" x2="102" y2="1"/>
			<path id="Path-46-Copy" class="st1" d="M102,1.8c-9.8,8.5-18.8,17.5-27.2,26.9C58,47.8,40.7,79,36,101"/>
		</g>
	</g>
</g>
</svg>
