<?xml version="1.0" encoding="UTF-8"?>
<svg width="549px" height="727px" viewBox="0 0 549 727" version="1.1" xmlns="http://www.w3.org/2000/svg" xmlns:xlink="http://www.w3.org/1999/xlink">
    <!-- Generator: Sketch 63.1 (92452) - https://sketch.com -->
    <title>Group 4</title>
    <desc>Created with Sketch.</desc>
    <g id="Page-1" stroke="none" stroke-width="1" fill="none" fill-rule="evenodd">
        <g id="Artboard-Copy-83">
            <g id="Group-4" transform="translate(-943.000000, -631.000000)">
                <circle id="Oval" stroke="#FDE3AF" stroke-width="6" fill="#000000" cx="746" cy="746" r="743"></circle>
                <circle id="Oval-Copy-26" stroke="#FDE3AF" stroke-width="3" fill="#000000" cx="756.5" cy="748.5" r="718"></circle>
                <g id="Group-3" transform="translate(937.000000, 760.000000)">
                    <g id="Group-2">
                        <line x1="371" y1="36" x2="5" y2="0" id="Path-70-Copy" stroke="#FDE3AF" stroke-width="3"></line>
                        <line x1="368" y1="61" x2="7" y2="8" id="Path-70-Copy-2" stroke="#FDE3AF" stroke-width="3"></line>
                        <line x1="344" y1="83" x2="5" y2="14" id="Path-70-Copy-3" stroke="#FDE3AF" stroke-width="3"></line>
                        <line x1="360" y1="106" x2="5" y2="21" id="Path-70-Copy-4" stroke="#FDE3AF" stroke-width="3"></line>
                        <line x1="371" y1="135" x2="5" y2="27" id="Path-70-Copy-5" stroke="#FDE3AF" stroke-width="3"></line>
                        <line x1="360" y1="157" x2="5" y2="35" id="Path-70-Copy-6" stroke="#FDE3AF" stroke-width="3"></line>
                        <line x1="329" y1="171" x2="5" y2="42" id="Path-70-Copy-7" stroke="#FDE3AF" stroke-width="3"></line>
                        <line x1="286" y1="178" x2="5" y2="48" id="Path-70-Copy-8" stroke="#FDE3AF" stroke-width="3"></line>
                        <line x1="250" y1="184" x2="5" y2="56" id="Path-70-Copy-9" stroke="#FDE3AF" stroke-width="3"></line>
                        <line x1="235" y1="196" x2="6" y2="65" id="Path-70-Copy-16" stroke="#FDE3AF" stroke-width="3"></line>
                        <line x1="236" y1="223" x2="5" y2="73" id="Path-70-Copy-10" stroke="#FDE3AF" stroke-width="3"></line>
                        <line x1="278" y1="308" x2="5" y2="92" id="Path-70-Copy-11" stroke="#FDE3AF" stroke-width="3"></line>
                        <line x1="256" y1="262" x2="5" y2="84" id="Path-70-Copy-12" stroke="#FDE3AF" stroke-width="3"></line>
                        <line x1="295" y1="352" x2="6" y2="103" id="Path-70-Copy-13" stroke="#FDE3AF" stroke-width="3"></line>
                        <line x1="286" y1="381" x2="5" y2="113" id="Path-70-Copy-14" stroke="#FDE3AF" stroke-width="3"></line>
                        <line x1="264" y1="394" x2="6" y2="126" id="Path-70-Copy-15" stroke="#FDE3AF" stroke-width="3"></line>
                        <line x1="225" y1="389" x2="4" y2="138" id="Path-70-Copy-17" stroke="#FDE3AF" stroke-width="3"></line>
                        <line x1="184" y1="373" x2="1" y2="149" id="Path-70-Copy-18" stroke="#FDE3AF" stroke-width="3"></line>
                        <line x1="142" y1="356" x2="4" y2="168" id="Path-70-Copy-19" stroke="#FDE3AF" stroke-width="3"></line>
                        <line x1="120" y1="361" x2="6" y2="189" id="Path-70-Copy-20" stroke="#FDE3AF" stroke-width="3"></line>
                        <line x1="112" y1="389" x2="4" y2="208" id="Path-70-Copy-21" stroke="#FDE3AF" stroke-width="3"></line>
                        <line x1="115" y1="441" x2="5" y2="232" id="Path-70-Copy-22" stroke="#FDE3AF" stroke-width="3"></line>
                        <line x1="117" y1="495" x2="5" y2="262" id="Path-70-Copy-23" stroke="#FDE3AF" stroke-width="3"></line>
                        <line x1="88.5412371" y1="565.542802" x2="0.458762887" y2="331.457198" id="Path-70-Copy-25" stroke="#FDE3AF" stroke-width="3"></line>
                        <line x1="57.5396825" y1="558.540323" x2="0.46031746" y2="388.459677" id="Path-70-Copy-26" stroke="#FDE3AF" stroke-width="3"></line>
                        <line x1="109" y1="541" x2="5" y2="299" id="Path-70-Copy-24" stroke="#FDE3AF" stroke-width="3"></line>
                        <circle id="Oval" stroke="#FDE3AF" stroke-width="3" cx="379" cy="36" r="6.5"></circle>
                        <circle id="Oval-Copy" fill="#FDE3AF" cx="374" cy="62" r="8"></circle>
                        <circle id="Oval-Copy-2" fill="#FDE3AF" cx="349" cy="84" r="8"></circle>
                        <circle id="Oval-Copy-3" fill="#FDE3AF" cx="365" cy="106" r="8"></circle>
                        <circle id="Oval-Copy-6" fill="#FDE3AF" cx="334" cy="171" r="8"></circle>
                        <circle id="Oval-Copy-7" fill="#FDE3AF" cx="291" cy="182" r="8"></circle>
                        <circle id="Oval-Copy-8" fill="#FDE3AF" cx="256" cy="189" r="8"></circle>
                        <circle id="Oval-Copy-9" fill="#FDE3AF" cx="237" cy="200" r="8"></circle>
                        <circle id="Oval-Copy-10" fill="#FDE3AF" cx="239" cy="226" r="8"></circle>
                        <circle id="Oval-Copy-11" fill="#FDE3AF" cx="260" cy="264" r="8"></circle>
                        <circle id="Oval-Copy-12" fill="#FDE3AF" cx="283" cy="310" r="8"></circle>
                        <circle id="Oval-Copy-13" fill="#FDE3AF" cx="298" cy="356" r="8"></circle>
                        <circle id="Oval-Copy-14" stroke="#FDE3AF" stroke-width="3" cx="292" cy="387" r="6.5"></circle>
                        <circle id="Oval-Copy-15" fill="#FDE3AF" cx="269" cy="398" r="8"></circle>
                        <circle id="Oval-Copy-16" fill="#FDE3AF" cx="228" cy="392" r="8"></circle>
                        <circle id="Oval-Copy-17" fill="#FDE3AF" cx="183" cy="375" r="8"></circle>
                        <circle id="Oval-Copy-18" fill="#FDE3AF" cx="146" cy="362" r="8"></circle>
                        <circle id="Oval-Copy-19" fill="#FDE3AF" cx="121" cy="365" r="8"></circle>
                        <circle id="Oval-Copy-20" fill="#FDE3AF" cx="116" cy="394" r="8"></circle>
                        <ellipse id="Oval-Copy-21" fill="#FDE3AF" cx="119.5" cy="444" rx="8.5" ry="8"></ellipse>
                        <circle id="Oval-Copy-22" fill="#FDE3AF" cx="120" cy="502" r="8"></circle>
                        <circle id="Oval-Copy-23" stroke="#FDE3AF" stroke-width="3" cx="112" cy="547" r="6.5"></circle>
                        <circle id="Oval-Copy-24" fill="#FDE3AF" cx="90" cy="571" r="8"></circle>
                        <circle id="Oval-Copy-25" fill="#FDE3AF" cx="58" cy="562" r="8"></circle>
                        <circle id="Oval-Copy-4" stroke="#FDE3AF" stroke-width="3" fill="#FDE3AF" cx="379" cy="136" r="6.5"></circle>
                    </g>
                    <circle id="Oval-Copy-5" stroke="#FDE3AF" stroke-width="3" cx="365" cy="160" r="6.5"></circle>
                </g>
            </g>
        </g>
    </g>
</svg>