<?xml version="1.0" encoding="UTF-8"?>
<svg width="428px" height="269px" viewBox="0 0 428 269" version="1.1" xmlns="http://www.w3.org/2000/svg" xmlns:xlink="http://www.w3.org/1999/xlink">
    <!-- Generator: Sketch 63.1 (92452) - https://sketch.com -->
    <title>Group 3</title>
    <desc>Created with Sketch.</desc>
    <g id="Page-1" stroke="none" stroke-width="1" fill="none" fill-rule="evenodd">
        <g id="Artboard-Copy-85" transform="translate(0.000000, -352.000000)">
            <g id="Group-3" transform="translate(-279.000000, 352.000000)">
                <g id="Group-2" fill="#000000" stroke="#FDE3AF">
                    <circle id="Oval" stroke-width="3" transform="translate(359.000000, 359.000000) rotate(-90.000000) translate(-359.000000, -359.000000) " cx="359" cy="359" r="357.5"></circle>
                    <circle id="Oval-Copy-26" stroke-width="2" transform="translate(358.500000, 354.500000) rotate(-90.000000) translate(-358.500000, -354.500000) " cx="358.5" cy="354.5" r="345.5"></circle>
                </g>
                <g id="Group" transform="translate(280.000000, 57.000000)">
                    <line x1="20" y1="9.16371488" x2="1" y2="212.053136" id="Path-70-Copy" stroke="#FDE3AF" stroke-width="2"></line>
                    <line x1="34" y1="11.1626254" x2="4" y2="213.052591" id="Path-70-Copy-2" stroke="#FDE3AF" stroke-width="2"></line>
                    <line x1="46" y1="24.155544" x2="7" y2="212.053136" id="Path-70-Copy-3" stroke="#FDE3AF" stroke-width="2"></line>
                    <line x1="59" y1="14.1609913" x2="12" y2="212.053136" id="Path-70-Copy-4" stroke="#FDE3AF" stroke-width="2"></line>
                    <line x1="74" y1="9.16371488" x2="15" y2="212.053136" id="Path-70-Copy-5" stroke="#FDE3AF" stroke-width="2"></line>
                    <line x1="88" y1="14.1609913" x2="20" y2="212.053136" id="Path-70-Copy-6" stroke="#FDE3AF" stroke-width="2"></line>
                    <line x1="96" y1="32.1511863" x2="23" y2="212.053136" id="Path-70-Copy-7" stroke="#FDE3AF" stroke-width="2"></line>
                    <line x1="100" y1="56.1381129" x2="27" y2="212.053136" id="Path-70-Copy-8" stroke="#FDE3AF" stroke-width="2"></line>
                    <line x1="102" y1="77.1266737" x2="31" y2="212.053136" id="Path-70-Copy-9" stroke="#FDE3AF" stroke-width="2"></line>
                    <line x1="109" y1="85.122316" x2="35" y2="212.053136" id="Path-70-Copy-16" stroke="#FDE3AF" stroke-width="2"></line>
                    <line x1="123" y1="84.1228607" x2="40" y2="212.053136" id="Path-70-Copy-10" stroke="#FDE3AF" stroke-width="2"></line>
                    <line x1="171" y1="60.135934" x2="51" y2="212.053136" id="Path-70-Copy-11" stroke="#FDE3AF" stroke-width="2"></line>
                    <line x1="145" y1="73.1288526" x2="46" y2="212.053136" id="Path-70-Copy-12" stroke="#FDE3AF" stroke-width="2"></line>
                    <line x1="195" y1="51.1408365" x2="57" y2="212.053136" id="Path-70-Copy-13" stroke="#FDE3AF" stroke-width="2"></line>
                    <line x1="213" y1="56.1381129" x2="63" y2="212.053136" id="Path-70-Copy-14" stroke="#FDE3AF" stroke-width="2"></line>
                    <line x1="219" y1="69.1310315" x2="69" y2="212.053136" id="Path-70-Copy-15" stroke="#FDE3AF" stroke-width="2"></line>
                    <line x1="216" y1="90.1195923" x2="77" y2="213.052591" id="Path-70-Copy-17" stroke="#FDE3AF" stroke-width="2"></line>
                    <line x1="207" y1="114.106519" x2="82" y2="215.051502" id="Path-70-Copy-18" stroke="#FDE3AF" stroke-width="2"></line>
                    <line x1="197" y1="136.094535" x2="92" y2="213.052591" id="Path-70-Copy-19" stroke="#FDE3AF" stroke-width="2"></line>
                    <line x1="201" y1="148.087998" x2="105" y2="212.053136" id="Path-70-Copy-20" stroke="#FDE3AF" stroke-width="2"></line>
                    <line x1="217" y1="153.085275" x2="115" y2="212.053136" id="Path-70-Copy-21" stroke="#FDE3AF" stroke-width="2"></line>
                    <line x1="245" y1="151.086364" x2="128" y2="212.053136" id="Path-70-Copy-22" stroke="#FDE3AF" stroke-width="2"></line>
                    <line x1="275" y1="150.086909" x2="145" y2="212.053136" id="Path-70-Copy-23" stroke="#FDE3AF" stroke-width="2"></line>
                    <line x1="315" y1="166.078193" x2="184" y2="215.051502" id="Path-70-Copy-25" stroke="#FDE3AF" stroke-width="2"></line>
                    <line x1="311" y1="183.068933" x2="217" y2="215.051502" id="Path-70-Copy-26" stroke="#FDE3AF" stroke-width="2"></line>
                    <line x1="302" y1="155.084185" x2="167" y2="213.052591" id="Path-70-Copy-24" stroke="#FDE3AF" stroke-width="2"></line>
                    <ellipse id="Oval" stroke="#FDE3AF" stroke-width="2" transform="translate(19.500000, 4.666166) rotate(-90.000000) translate(-19.500000, -4.666166) " cx="19.5" cy="4.66616613" rx="3.49754875" ry="3.5"></ellipse>
                    <ellipse id="Oval-Copy" fill="#FDE3AF" transform="translate(34.500000, 7.664532) rotate(-90.000000) translate(-34.500000, -7.664532) " cx="34.5" cy="7.66453197" rx="4.49754875" ry="4.5"></ellipse>
                    <ellipse id="Oval-Copy-2" fill="#FDE3AF" transform="translate(45.500000, 21.656906) rotate(-90.000000) translate(-45.500000, -21.656906) " cx="45.5" cy="21.6569058" rx="4.49754875" ry="4.5"></ellipse>
                    <ellipse id="Oval-Copy-3" fill="#FDE3AF" transform="translate(59.500000, 12.661808) rotate(-90.000000) translate(-59.500000, -12.661808) " cx="59.5" cy="12.6618084" rx="4.49754875" ry="4.5"></ellipse>
                    <ellipse id="Oval-Copy-6" fill="#FDE3AF" transform="translate(95.500000, 29.652548) rotate(-90.000000) translate(-95.500000, -29.652548) " cx="95.5" cy="29.6525481" rx="4.49754875" ry="4.5"></ellipse>
                    <ellipse id="Oval-Copy-7" fill="#FDE3AF" transform="translate(101.500000, 52.640019) rotate(-90.000000) translate(-101.500000, -52.640019) " cx="101.5" cy="52.6400194" rx="4.49754875" ry="4.5"></ellipse>
                    <ellipse id="Oval-Copy-8" fill="#FDE3AF" transform="translate(104.500000, 73.628580) rotate(-90.000000) translate(-104.500000, -73.628580) " cx="104.5" cy="73.6285803" rx="4.49754875" ry="4.5"></ellipse>
                    <ellipse id="Oval-Copy-9" fill="#FDE3AF" transform="translate(111.500000, 83.623133) rotate(-90.000000) translate(-111.500000, -83.623133) " cx="111.5" cy="83.623133" rx="4.49754875" ry="4.5"></ellipse>
                    <ellipse id="Oval-Copy-10" fill="#FDE3AF" transform="translate(125.500000, 82.623678) rotate(-90.000000) translate(-125.500000, -82.623678) " cx="125.5" cy="82.6236778" rx="4.49754875" ry="4.5"></ellipse>
                    <ellipse id="Oval-Copy-11" fill="#FDE3AF" transform="translate(147.500000, 70.630214) rotate(-90.000000) translate(-147.500000, -70.630214) " cx="147.5" cy="70.6302144" rx="4.49754875" ry="4.5"></ellipse>
                    <ellipse id="Oval-Copy-12" fill="#FDE3AF" transform="translate(172.500000, 57.637296) rotate(-90.000000) translate(-172.500000, -57.637296) " cx="172.5" cy="57.6372958" rx="4.49754875" ry="4.5"></ellipse>
                    <ellipse id="Oval-Copy-13" fill="#FDE3AF" transform="translate(197.500000, 49.641654) rotate(-90.000000) translate(-197.500000, -49.641654) " cx="197.5" cy="49.6416536" rx="4.49754875" ry="4.5"></ellipse>
                    <ellipse id="Oval-Copy-14" stroke="#FDE3AF" stroke-width="2" transform="translate(215.500000, 52.640019) rotate(-90.000000) translate(-215.500000, -52.640019) " cx="215.5" cy="52.6400194" rx="3.49754875" ry="3.5"></ellipse>
                    <ellipse id="Oval-Copy-15" fill="#FDE3AF" transform="translate(221.500000, 65.632938) rotate(-90.000000) translate(-221.500000, -65.632938) " cx="221.5" cy="65.632938" rx="4.49754875" ry="4.5"></ellipse>
                    <ellipse id="Oval-Copy-16" fill="#FDE3AF" transform="translate(218.500000, 88.620409) rotate(-90.000000) translate(-218.500000, -88.620409) " cx="218.5" cy="88.6204094" rx="4.49754875" ry="4.5"></ellipse>
                    <ellipse id="Oval-Copy-17" fill="#FDE3AF" transform="translate(208.500000, 113.606791) rotate(-90.000000) translate(-208.500000, -113.606791) " cx="208.5" cy="113.606791" rx="4.49754875" ry="4.5"></ellipse>
                    <ellipse id="Oval-Copy-18" fill="#FDE3AF" transform="translate(200.500000, 134.595352) rotate(-90.000000) translate(-200.500000, -134.595352) " cx="200.5" cy="134.595352" rx="4.49754875" ry="4.5"></ellipse>
                    <ellipse id="Oval-Copy-19" fill="#FDE3AF" transform="translate(202.500000, 147.588271) rotate(-90.000000) translate(-202.500000, -147.588271) " cx="202.5" cy="147.588271" rx="4.49754875" ry="4.5"></ellipse>
                    <ellipse id="Oval-Copy-20" fill="#FDE3AF" transform="translate(219.500000, 150.586637) rotate(-90.000000) translate(-219.500000, -150.586637) " cx="219.5" cy="150.586637" rx="4.49754875" ry="4.5"></ellipse>
                    <ellipse id="Oval-Copy-21" fill="#FDE3AF" transform="translate(246.000000, 148.587726) rotate(-90.000000) translate(-246.000000, -148.587726) " cx="246" cy="148.587726" rx="4.99727639" ry="4.5"></ellipse>
                    <ellipse id="Oval-Copy-22" fill="#FDE3AF" transform="translate(278.500000, 148.587726) rotate(-90.000000) translate(-278.500000, -148.587726) " cx="278.5" cy="148.587726" rx="4.49754875" ry="4.5"></ellipse>
                    <ellipse id="Oval-Copy-23" stroke="#FDE3AF" stroke-width="2" transform="translate(305.500000, 152.585547) rotate(-90.000000) translate(-305.500000, -152.585547) " cx="305.5" cy="152.585547" rx="3.49754875" ry="3.5"></ellipse>
                    <ellipse id="Oval-Copy-24" fill="#FDE3AF" transform="translate(317.500000, 164.579010) rotate(-90.000000) translate(-317.500000, -164.579010) " cx="317.5" cy="164.57901" rx="4.49754875" ry="4.5"></ellipse>
                    <ellipse id="Oval-Copy-25" fill="#FDE3AF" transform="translate(312.500000, 182.569205) rotate(-90.000000) translate(-312.500000, -182.569205) " cx="312.5" cy="182.569205" rx="4.49754875" ry="4.5"></ellipse>
                    <ellipse id="Oval-Copy-4" stroke="#FDE3AF" stroke-width="3" fill="#FDE3AF" transform="translate(75.500000, 5.165894) rotate(-90.000000) translate(-75.500000, -5.165894) " cx="75.5" cy="5.16589377" rx="2.99754875" ry="3.5"></ellipse>
                    <ellipse id="Oval-Copy-5" stroke="#FDE3AF" stroke-width="2" transform="translate(87.500000, 12.162081) rotate(-90.000000) translate(-87.500000, -12.162081) " cx="87.5" cy="12.1620807" rx="3.49754875" ry="4"></ellipse>
                </g>
            </g>
        </g>
    </g>
</svg>