<?xml version="1.0" encoding="UTF-8"?>
<svg width="711px" height="433px" viewBox="0 0 711 433" version="1.1" xmlns="http://www.w3.org/2000/svg" xmlns:xlink="http://www.w3.org/1999/xlink">
    <!-- Generator: Sketch 63.1 (92452) - https://sketch.com -->
    <title>Group 5</title>
    <desc>Created with Sketch.</desc>
    <g id="Page-1" stroke="none" stroke-width="1" fill="none" fill-rule="evenodd">
        <g id="Artboard-Copy-84" transform="translate(0.000000, -526.000000)">
            <g id="Group-5" transform="translate(-685.000000, 526.000000)">
                <g id="Group-2" fill="#000000" stroke="#FDE3AF">
                    <circle id="Oval" stroke-width="6" transform="translate(729.000000, 729.000000) rotate(-90.000000) translate(-729.000000, -729.000000) " cx="729" cy="729" r="726"></circle>
                    <circle id="Oval-Copy-26" stroke-width="3" transform="translate(731.000000, 719.000000) rotate(-90.000000) translate(-731.000000, -719.000000) " cx="731" cy="719" r="701.5"></circle>
                </g>
                <g id="Group-3" transform="translate(533.000000, 4.000000)">
                    <g id="Group">
                        <line x1="188.932341" y1="82.0919037" x2="153.322057" y2="446.065646" id="Path-70-Copy" stroke="#FDE3AF" stroke-width="3"></line>
                        <line x1="213.661705" y1="86.04814" x2="160.246279" y2="447.054705" id="Path-70-Copy-2" stroke="#FDE3AF" stroke-width="3"></line>
                        <line x1="235.423545" y1="108.796499" x2="166.181326" y2="446.065646" id="Path-70-Copy-3" stroke="#FDE3AF" stroke-width="3"></line>
                        <line x1="258.17456" y1="92.9715536" x2="173.105548" y2="447.054705" id="Path-70-Copy-4" stroke="#FDE3AF" stroke-width="3"></line>
                        <line x1="286.860622" y1="82.0919037" x2="180.02977" y2="446.065646" id="Path-70-Copy-5" stroke="#FDE3AF" stroke-width="3"></line>
                        <line x1="309.611637" y1="92.9715536" x2="187.943166" y2="447.054705" id="Path-70-Copy-6" stroke="#FDE3AF" stroke-width="3"></line>
                        <line x1="323.460081" y1="123.632385" x2="193.878214" y2="446.065646" id="Path-70-Copy-7" stroke="#FDE3AF" stroke-width="3"></line>
                        <line x1="331.373478" y1="166.161926" x2="200.802436" y2="446.065646" id="Path-70-Copy-8" stroke="#FDE3AF" stroke-width="3"></line>
                        <line x1="336.31935" y1="202.757112" x2="208.715832" y2="446.065646" id="Path-70-Copy-9" stroke="#FDE3AF" stroke-width="3"></line>
                        <line x1="349.17862" y1="218.582057" x2="217.618403" y2="447.054705" id="Path-70-Copy-16" stroke="#FDE3AF" stroke-width="3"></line>
                        <line x1="374.897158" y1="216.603939" x2="226.520974" y2="447.054705" id="Path-70-Copy-10" stroke="#FDE3AF" stroke-width="3"></line>
                        <line x1="459.966171" y1="175.063457" x2="244.326116" y2="447.054705" id="Path-70-Copy-11" stroke="#FDE3AF" stroke-width="3"></line>
                        <line x1="413.474966" y1="195.833698" x2="235.423545" y2="446.065646" id="Path-70-Copy-12" stroke="#FDE3AF" stroke-width="3"></line>
                        <line x1="503.489851" y1="158.249453" x2="255.207037" y2="446.065646" id="Path-70-Copy-13" stroke="#FDE3AF" stroke-width="3"></line>
                        <line x1="534.154263" y1="166.161926" x2="266.087957" y2="446.065646" id="Path-70-Copy-14" stroke="#FDE3AF" stroke-width="3"></line>
                        <line x1="546.024357" y1="189.899344" x2="277.958051" y2="447.054705" id="Path-70-Copy-15" stroke="#FDE3AF" stroke-width="3"></line>
                        <line x1="541.078484" y1="227.483589" x2="290.817321" y2="448.043764" id="Path-70-Copy-17" stroke="#FDE3AF" stroke-width="3"></line>
                        <line x1="525.251691" y1="270.013129" x2="300.709066" y2="452" id="Path-70-Copy-18" stroke="#FDE3AF" stroke-width="3"></line>
                        <line x1="507.446549" y1="310.564551" x2="319.503383" y2="448.043764" id="Path-70-Copy-19" stroke="#FDE3AF" stroke-width="3"></line>
                        <line x1="513.381597" y1="332.323851" x2="341.265223" y2="446.065646" id="Path-70-Copy-20" stroke="#FDE3AF" stroke-width="3"></line>
                        <line x1="541.078484" y1="340.236324" x2="360.05954" y2="447.054705" id="Path-70-Copy-21" stroke="#FDE3AF" stroke-width="3"></line>
                        <line x1="593.504736" y1="337.269147" x2="384.788904" y2="447.054705" id="Path-70-Copy-22" stroke="#FDE3AF" stroke-width="3"></line>
                        <line x1="646.920162" y1="335.291028" x2="413.474966" y2="447.054705" id="Path-70-Copy-23" stroke="#FDE3AF" stroke-width="3"></line>
                        <line x1="718.140731" y1="363.973742" x2="483.70636" y2="452" id="Path-70-Copy-25" stroke="#FDE3AF" stroke-width="3"></line>
                        <line x1="710.227334" y1="394.634573" x2="541.078484" y2="452" id="Path-70-Copy-26" stroke="#FDE3AF" stroke-width="3"></line>
                        <line x1="694.400541" y1="344.19256" x2="452.052774" y2="448.043764" id="Path-70-Copy-24" stroke="#FDE3AF" stroke-width="3"></line>
                        <ellipse id="Oval" stroke="#FDE3AF" stroke-width="3" transform="translate(188.437754, 74.673961) rotate(-90.000000) translate(-188.437754, -74.673961) " cx="188.437754" cy="74.6739606" rx="6.90700219" ry="6.90798376"></ellipse>
                        <ellipse id="Oval-Copy" fill="#FDE3AF" transform="translate(215.145467, 79.619256) rotate(-90.000000) translate(-215.145467, -79.619256) " cx="215.145467" cy="79.619256" rx="8.40700219" ry="8.40798376"></ellipse>
                        <ellipse id="Oval-Copy-2" fill="#FDE3AF" transform="translate(235.918133, 105.334792) rotate(-90.000000) translate(-235.918133, -105.334792) " cx="235.918133" cy="105.334792" rx="8.40700219" ry="8.40798376"></ellipse>
                        <ellipse id="Oval-Copy-3" fill="#FDE3AF" transform="translate(258.669147, 88.520788) rotate(-90.000000) translate(-258.669147, -88.520788) " cx="258.669147" cy="88.5207877" rx="8.40700219" ry="8.40798376"></ellipse>
                        <ellipse id="Oval-Copy-6" fill="#FDE3AF" transform="translate(323.954668, 119.181619) rotate(-90.000000) translate(-323.954668, -119.181619) " cx="323.954668" cy="119.181619" rx="8.40700219" ry="8.40798376"></ellipse>
                        <ellipse id="Oval-Copy-7" fill="#FDE3AF" transform="translate(334.835589, 161.711160) rotate(-90.000000) translate(-334.835589, -161.711160) " cx="334.835589" cy="161.71116" rx="8.40700219" ry="8.40798376"></ellipse>
                        <ellipse id="Oval-Copy-8" fill="#FDE3AF" transform="translate(340.770636, 197.317287) rotate(-90.000000) translate(-340.770636, -197.317287) " cx="340.770636" cy="197.317287" rx="8.40700219" ry="8.40798376"></ellipse>
                        <ellipse id="Oval-Copy-9" fill="#FDE3AF" transform="translate(352.640731, 216.109409) rotate(-90.000000) translate(-352.640731, -216.109409) " cx="352.640731" cy="216.109409" rx="8.40700219" ry="8.40798376"></ellipse>
                        <ellipse id="Oval-Copy-10" fill="#FDE3AF" transform="translate(378.359269, 214.131291) rotate(-90.000000) translate(-378.359269, -214.131291) " cx="378.359269" cy="214.131291" rx="8.40700219" ry="8.40798376"></ellipse>
                        <ellipse id="Oval-Copy-11" fill="#FDE3AF" transform="translate(416.937077, 192.371991) rotate(-90.000000) translate(-416.937077, -192.371991) " cx="416.937077" cy="192.371991" rx="8.40700219" ry="8.40798376"></ellipse>
                        <ellipse id="Oval-Copy-12" fill="#FDE3AF" transform="translate(462.439107, 170.612691) rotate(-90.000000) translate(-462.439107, -170.612691) " cx="462.439107" cy="170.612691" rx="8.40700219" ry="8.40798376"></ellipse>
                        <ellipse id="Oval-Copy-13" fill="#FDE3AF" transform="translate(507.941137, 154.787746) rotate(-90.000000) translate(-507.941137, -154.787746) " cx="507.941137" cy="154.787746" rx="8.40700219" ry="8.40798376"></ellipse>
                        <ellipse id="Oval-Copy-14" stroke="#FDE3AF" stroke-width="3" transform="translate(538.605548, 160.722101) rotate(-90.000000) translate(-538.605548, -160.722101) " cx="538.605548" cy="160.722101" rx="6.90700219" ry="6.90798376"></ellipse>
                        <ellipse id="Oval-Copy-15" fill="#FDE3AF" transform="translate(550.475643, 184.459519) rotate(-90.000000) translate(-550.475643, -184.459519) " cx="550.475643" cy="184.459519" rx="8.40700219" ry="8.40798376"></ellipse>
                        <ellipse id="Oval-Copy-16" fill="#FDE3AF" transform="translate(543.551421, 225.010941) rotate(-90.000000) translate(-543.551421, -225.010941) " cx="543.551421" cy="225.010941" rx="8.40700219" ry="8.40798376"></ellipse>
                        <ellipse id="Oval-Copy-17" fill="#FDE3AF" transform="translate(527.724628, 269.518600) rotate(-90.000000) translate(-527.724628, -269.518600) " cx="527.724628" cy="269.5186" rx="8.40700219" ry="8.40798376"></ellipse>
                        <ellipse id="Oval-Copy-18" fill="#FDE3AF" transform="translate(513.876184, 307.102845) rotate(-90.000000) translate(-513.876184, -307.102845) " cx="513.876184" cy="307.102845" rx="8.40700219" ry="8.40798376"></ellipse>
                        <ellipse id="Oval-Copy-19" fill="#FDE3AF" transform="translate(516.843708, 330.840263) rotate(-90.000000) translate(-516.843708, -330.840263) " cx="516.843708" cy="330.840263" rx="8.40700219" ry="8.40798376"></ellipse>
                        <ellipse id="Oval-Copy-20" fill="#FDE3AF" transform="translate(545.529770, 336.774617) rotate(-90.000000) translate(-545.529770, -336.774617) " cx="545.52977" cy="336.774617" rx="8.40700219" ry="8.40798376"></ellipse>
                        <ellipse id="Oval-Copy-21" fill="#FDE3AF" transform="translate(595.483085, 333.807440) rotate(-90.000000) translate(-595.483085, -333.807440) " cx="595.483085" cy="333.80744" rx="8.90153173" ry="8.40798376"></ellipse>
                        <ellipse id="Oval-Copy-22" fill="#FDE3AF" transform="translate(653.349797, 332.818381) rotate(-90.000000) translate(-653.349797, -332.818381) " cx="653.349797" cy="332.818381" rx="8.40700219" ry="8.40798376"></ellipse>
                        <ellipse id="Oval-Copy-23" stroke="#FDE3AF" stroke-width="3" transform="translate(699.841001, 340.730853) rotate(-90.000000) translate(-699.841001, -340.730853) " cx="699.841001" cy="340.730853" rx="6.90700219" ry="6.90798376"></ellipse>
                        <ellipse id="Oval-Copy-24" fill="#FDE3AF" transform="translate(722.592016, 361.501094) rotate(-90.000000) translate(-722.592016, -361.501094) " cx="722.592016" cy="361.501094" rx="8.40700219" ry="8.40798376"></ellipse>
                        <ellipse id="Oval-Copy-25" fill="#FDE3AF" transform="translate(713.689445, 394.140044) rotate(-90.000000) translate(-713.689445, -394.140044) " cx="713.689445" cy="394.140044" rx="8.40700219" ry="8.40798376"></ellipse>
                    </g>
                    <circle id="Oval-Copy-4" stroke="#FDE3AF" stroke-width="3" fill="#FDE3AF" transform="translate(288.500000, 74.500000) rotate(-90.000000) translate(-288.500000, -74.500000) " cx="288.5" cy="74.5" r="7"></circle>
                    <circle id="Oval-Copy-5" stroke="#FDE3AF" stroke-width="3" transform="translate(310.500000, 87.500000) rotate(-90.000000) translate(-310.500000, -87.500000) " cx="310.5" cy="87.5" r="7"></circle>
                </g>
            </g>
        </g>
    </g>
</svg>