<?xml version="1.0" encoding="utf-8"?>
<!-- Generator: Adobe Illustrator 24.1.3, SVG Export Plug-In . SVG Version: 6.00 Build 0)  -->
<svg version="1.1" id="Layer_1" xmlns="http://www.w3.org/2000/svg" xmlns:xlink="http://www.w3.org/1999/xlink" x="0px" y="0px"
	 viewBox="0 0 207 202" style="enable-background:new 0 0 207 202;" xml:space="preserve">
<style type="text/css">
	.st0{fill:none;stroke:#FDE3AF;stroke-width:2;}
	.st1{fill:none;stroke:#F8DFAD;stroke-width:2;}
	.st2{fill-rule:evenodd;clip-rule:evenodd;fill:#FDE3AF;stroke:#FDE3AF;stroke-width:2;}
</style>
<desc>Created with Sketch.</desc>
<g id="Group-11" transform="translate(21.000000, 876.000000)">
	<g id="Group-8">
		<ellipse id="Oval-Copy-34" class="st0" cx="80.5" cy="-775" rx="100.5" ry="100"/>
		<line id="Path-25-Copy-2" class="st0" x1="-21" y1="-773.5" x2="182" y2="-773.5"/>
		<line id="Path-25-Copy-3" class="st0" x1="80.5" y1="-674" x2="80.5" y2="-876"/>
		<path id="Path-26-Copy" class="st0" d="M81-874c-38.6,8.7-61.1,50.8-65.5,75.6c-4.4,24.8-0.4,57,27.9,77c28.2,20,70,14.2,86.4-6.2
			s17.9-31.5,19.2-47"/>
		<path id="Path-29-Copy" class="st0" d="M132-859.8c-20.8-4.6-40.5-1.3-57.3,2.5S43.4-843.9,29-831"/>
		<polygon id="Path-30-Copy" class="st0" points="57.4,-772.3 80.5,-676.4 104.7,-771.5 126.9,-728.6 		"/>
		<polygon id="Path-31-Copy" class="st1" points="-6,-723.8 104.5,-773 113.1,-729.7 57,-773 		"/>
		<ellipse id="Oval-Copy-35" class="st2" cx="80.5" cy="-775" rx="13.5" ry="14"/>
		<polyline id="Path-70" class="st0" points="164,-829 80,-774 131.8,-861 		"/>
		<polyline id="Path-71" class="st0" points="14.2,-851 80,-774 -7,-823.3 		"/>
	</g>
	<path id="Path-27-Copy" class="st0" d="M80.6-831c26,2.6,39,15,47.4,28s12,45.4-6,67.2s-46.1,29.9-80.2,13.1
		C19.1-734,7.2-751.5,6-775.2"/>
</g>
</svg>
