<?xml version="1.0" encoding="UTF-8"?>
<svg width="327px" height="1010px" viewBox="0 0 327 1010" version="1.1" xmlns="http://www.w3.org/2000/svg" xmlns:xlink="http://www.w3.org/1999/xlink">
    <!-- Generator: Sketch 63.1 (92452) - https://sketch.com -->
    <title>Group 2</title>
    <desc>Created with Sketch.</desc>
    <g id="Page-1" stroke="none" stroke-width="1" fill="none" fill-rule="evenodd">
        <g id="Artboard-Copy-88" transform="translate(-14.000000, -131.000000)">
            <g id="Group-2" transform="translate(16.000000, 131.000000)">
                <path d="M210.537024,10.9476318 C240.012514,20.7788754 262.271166,40.0169341 277.312977,68.6618078 C299.875695,111.629118 288.808915,156.964141 271.516656,184.916138 C254.224396,212.868134 205.735786,241.311964 160,227.317268" id="Path-17" stroke="#FDE3AF" stroke-width="5"></path>
                <ellipse id="Oval" fill="#FDE3AF" cx="153.5" cy="224" rx="10.5" ry="10"></ellipse>
                <circle id="Oval-Copy-6" fill="#FDE3AF" cx="289.5" cy="745.5" r="10.5"></circle>
                <ellipse id="Oval-Copy-3" fill="#FDE3AF" transform="translate(280.500000, 436.000000) rotate(23.000000) translate(-280.500000, -436.000000) " cx="280.5" cy="436" rx="10.5" ry="10"></ellipse>
                <ellipse id="Oval-Copy-8" stroke="#FDE3AF" stroke-width="3" cx="177" cy="999.5" rx="8.5" ry="9"></ellipse>
                <circle id="Oval-Copy-4" stroke="#FDE3AF" stroke-width="3" cx="204.5" cy="8.5" r="7"></circle>
                <circle id="Oval-Copy-11" fill="#FDE3AF" cx="13.5" cy="780.5" r="5.5"></circle>
                <circle id="Oval-Copy-12" fill="#FDE3AF" cx="135.5" cy="800.5" r="5.5"></circle>
                <circle id="Oval-Copy-9" fill="#FDE3AF" cx="97.5" cy="413.5" r="5.5"></circle>
                <path d="M152.020672,549.976808 C155.046497,550.2656 157.714015,547.823803 157.978741,544.522903 C158.243466,541.222003 156.005153,538.311983 152.979328,538.023192 C149.953503,537.7344 147.285985,540.176197 147.021259,543.477097 C146.756534,546.777997 148.994847,549.688017 152.020672,549.976808 Z" id="Oval-Copy-13" fill="#FDE3AF"></path>
                <circle id="Oval-Copy-14" fill="#FDE3AF" transform="translate(156.500000, 654.500000) rotate(28.000000) translate(-156.500000, -654.500000) " cx="156.5" cy="654.5" r="5.5"></circle>
                <circle id="Oval-Copy-10" fill="#FDE3AF" cx="24.5" cy="333.5" r="5.5"></circle>
                <circle id="Oval-Copy-15" fill="#FDE3AF" cx="82.5" cy="113.5" r="5.5"></circle>
                <circle id="Oval-Copy-16" fill="#FDE3AF" cx="125.5" cy="54.5" r="5.5"></circle>
                <path d="M273.050784,435.84201 C203.120687,429.496008 125.18546,459.047962 97.8058389,523.586068 C70.4262183,588.124175 82.1974338,668.170126 147.294502,716.225701 C190.692547,748.262752 236.261047,758.782135 284,747.783851" id="Path-28" stroke="#FDE3AF" stroke-width="5"></path>
                <path d="M294.047628,750 C325.600718,803.263941 325.600718,851.285762 317.38917,891.770815 C309.177621,932.255868 288.995371,961.282571 256.139528,979.457245 C234.235633,991.573694 210.189124,998.421279 184,1000" id="Path-32" stroke="#FDE3AF" stroke-width="5"></path>
                <path d="M147,224.139301 C86.6120221,202.331029 41.5814448,228.402126 20.1926404,254.651411 C-1.19616397,280.900695 -11.3384056,337.384337 19.1755764,375.624904 C39.5182311,401.118615 65.5708017,413.910314 97.3332881,414" id="Path-34" stroke="#FDE3AF" stroke-width="2"></path>
                <path d="M24.3237799,333 C11.6482943,296.682685 28.5589884,257.003069 52.7677075,238.543254 C76.9764266,220.083439 120.190257,215.73759 147,224.030142" id="Path-35" stroke="#FDE3AF" stroke-width="2"></path>
                <path d="M82.078159,109 C80.8413431,76.0058037 94.3781182,45.2101806 115.953275,28.7034476 C137.528432,12.1967146 157.189329,2.83147833 199,6.97923263" id="Path-36" stroke="#FDE3AF" stroke-width="2"></path>
                <path d="M126,51 C129.884998,26.8210609 165.476019,3.0887061 199,7.54232682" id="Path-37" stroke="#FDE3AF" stroke-width="2"></path>
                <path d="M12.1519687,784 C-19.1037614,859.571759 17.5418624,919.894651 37.0221249,943.200611 C56.5023873,966.506572 96.848646,1002 167,1002" id="Path-38" stroke="#FDE3AF" stroke-width="2"></path>
                <path d="M135.520927,800 C81.9838023,814.971066 63,863.661594 63,901.13754 C63,938.613486 83.7486489,999.771675 167,1002" id="Path-33" stroke="#FDE3AF" stroke-width="2"></path>
                <path d="M163.090823,226.769942 C143.427249,257.753262 134.344427,302.105186 151.339035,349.811002 C168.333644,397.516819 221.112944,430.935124 260.017761,443.488703" id="Path-33-Copy" stroke="#FDE3AF" stroke-width="5" transform="translate(201.208310, 335.129322) rotate(-7.000000) translate(-201.208310, -335.129322) "></path>
                <path d="M153.300808,652 C128.126293,626.203376 113.543926,579.821291 127.290292,533.882263 C141.036657,487.943235 167.130566,465.233643 189.140485,454.46637 C211.150404,443.699098 245.390669,435.040233 269,436.085699" id="Path-39" stroke="#FDE3AF" stroke-width="2"></path>
                <path d="M153,540 C156.02411,485.151541 193.778591,458.293917 212,449.782289 C230.221409,441.27066 250.05505,436 271,436" id="Path-40" stroke="#FDE3AF" stroke-width="2"></path>
            </g>
        </g>
    </g>
</svg>