<?xml version="1.0" encoding="UTF-8"?>
<svg width="1258px" height="1125px" viewBox="0 0 1258 1125" version="1.1" xmlns="http://www.w3.org/2000/svg" xmlns:xlink="http://www.w3.org/1999/xlink">
    <!-- Generator: Sketch 63.1 (92452) - https://sketch.com -->
    <title>Group</title>
    <desc>Created with Sketch.</desc>
    <g id="Page-1" stroke="none" stroke-width="1" fill="none" fill-rule="evenodd">
        <g id="Artboard-Copy-86" transform="translate(-51.000000, -234.000000)">
            <g id="Group" transform="translate(53.000000, 234.000000)">
                <path d="M384.428782,20.1151999 C439.786834,38.4929191 481.234903,74.0040952 508.772989,126.648728 C550.080118,205.615677 529.819398,288.934097 498.161262,340.305334 C466.503126,391.676571 377.73167,443.951718 294,418.231735" id="Path-17" stroke="#FDE3AF" stroke-width="6"></path>
                <ellipse id="Oval" fill="#FDE3AF" cx="282" cy="411.5" rx="19" ry="18.5"></ellipse>
                <ellipse id="Oval-Copy-6" fill="#FDE3AF" cx="992.5" cy="949" rx="18.5" ry="19"></ellipse>
                <ellipse id="Oval-Copy-3" fill="#FDE3AF" cx="689" cy="631.5" rx="19" ry="18.5"></ellipse>
                <circle id="Oval-Copy-8" stroke="#FDE3AF" stroke-width="7" cx="1030" cy="420" r="13.5"></circle>
                <circle id="Oval-Copy-15" stroke="#FDE3AF" stroke-width="7" cx="372" cy="17" r="13.5"></circle>
                <ellipse id="Oval-Copy-5" fill="#FDE3AF" cx="231" cy="95.5" rx="8" ry="8.5"></ellipse>
                <ellipse id="Oval-Copy-7" fill="#FDE3AF" cx="150.5" cy="204" rx="8.5" ry="9"></ellipse>
                <circle id="Oval-Copy-11" fill="#FDE3AF" cx="757.5" cy="20.5" r="10.5"></circle>
                <circle id="Oval-Copy-12" fill="#FDE3AF" cx="981.5" cy="56.5" r="10.5"></circle>
                <circle id="Oval-Copy-9" fill="#FDE3AF" cx="179.5" cy="743.5" r="10.5"></circle>
                <circle id="Oval-Copy-13" fill="#FDE3AF" cx="571.5" cy="822.5" r="10.5"></circle>
                <circle id="Oval-Copy-14" fill="#FDE3AF" cx="736.5" cy="1036.5" r="10.5"></circle>
                <circle id="Oval-Copy-10" fill="#FDE3AF" cx="49.5" cy="604.5" r="10.5"></circle>
                <path d="M675.963041,636 C562.24322,673.832848 504.686224,791.902184 512.744424,896.601847 C520.802623,1001.30151 621.565333,1107.4774 737.491131,1120.0863 C853.416929,1132.69519 936.892921,1083.54264 992,956.403296" id="Path-28" stroke="#FDE3AF" stroke-width="6"></path>
                <path d="M1000,943 C1139.21746,943 1244.70562,817.896733 1251.8683,712.988523 C1259.03098,608.080312 1231.80626,555.70356 1181.19028,497.776818 C1147.4463,459.158991 1102.41434,434.211157 1046.0944,422.933318" id="Path-32" stroke="#FDE3AF" stroke-width="6"></path>
                <path d="M269,404.730406 C158.567604,353.041323 76.0912154,403.644716 36.9511583,451.781488 C-2.18889869,499.918261 -20.748511,603.49976 35.0900004,673.626529 C72.3156747,720.377707 119.990107,743.835531 178.113296,744" id="Path-34" stroke="#FDE3AF" stroke-width="3"></path>
                <path d="M45.3631769,597 C22.2559657,530.39984 49.8161424,455.169564 93.9482573,421.317209 C138.080372,387.464854 196.437716,375.160701 269,404.575676" id="Path-35" stroke="#FDE3AF" stroke-width="3"></path>
                <path d="M151.142958,201 C148.880747,140.457251 173.640319,83.9487779 213.102571,53.6597242 C252.564824,23.3706705 288.401856,6.30414427 360.176737,13.7207554" id="Path-36" stroke="#FDE3AF" stroke-width="3"></path>
                <path d="M232,95 C239.131366,50.4887712 298.666727,7.82919288 360.176737,14.3917214" id="Path-37" stroke="#FDE3AF" stroke-width="3"></path>
                <path d="M755.008621,26 C697.825143,164.666182 778.282724,290.332807 808.94704,322.827477 C839.611356,355.322147 888.693755,421 1017.03817,421" id="Path-38" stroke="#FDE3AF" stroke-width="3"></path>
                <path d="M980.903127,56 C882.92801,83.4221503 849,165.960518 849,234.604328 C849,303.248138 891.256352,403.97668 1013,421" id="Path-33" stroke="#FDE3AF" stroke-width="3"></path>
                <path d="M508.109179,344.525356 C424.990355,390.598872 396.634359,485.1183 396.367694,566.250609 C396.101029,647.382918 436.167362,738.83663 499.782252,794.641537" id="Path-33-Copy" stroke="#FDE3AF" stroke-width="6" transform="translate(452.237775, 569.583447) rotate(-61.000000) translate(-452.237775, -569.583447) "></path>
                <path d="M732,1036 C628.999015,1025.44631 565.931845,945.730413 549.534148,877.845565 C533.13645,809.960716 555.967228,745.920161 581.585192,712.862769 C607.203156,679.805377 634.116521,655.072052 672.038487,637" id="Path-39" stroke="#FDE3AF" stroke-width="3"></path>
                <path d="M571.821294,821 C565.685264,737.857276 595.313054,704.281214 614.740573,683.291678 C634.168092,662.302143 653.771297,648.106329 672,637" id="Path-40" stroke="#FDE3AF" stroke-width="3"></path>
            </g>
        </g>
    </g>
</svg>